<svg xmlns="http://www.w3.org/2000/svg" version="1.1" xmlns:xlink="http://www.w3.org/1999/xlink" width="512" height="512" x="0" y="0" viewBox="0 0 512 512" style="enable-background:new 0 0 512 512" xml:space="preserve" class=""><g><path d="M450.941 161.504C448.555 72.602 375.473 0 286 0c-62.418 0-118.93 35.996-146.98 91.059-40.84-1.598-75.47 30.16-77.887 70.414C24.746 178.687 0 215.379 0 256c0 57.89 48.11 106 106 106h45v90h-32.762c-6.215-17.422-22.707-30-42.238-30-24.813 0-45 20.188-45 45s20.188 45 45 45c19.531 0 36.023-12.578 42.238-30H181V362h60v62.762c-17.422 6.215-30 22.707-30 42.238 0 24.813 20.188 45 45 45s45-20.188 45-45c0-19.531-12.578-36.023-30-42.238V362h60v120h62.762c6.215 17.422 22.707 30 42.238 30 24.813 0 45-20.188 45-45s-17.52-45-45-45c-19.531 0-36.023 12.578-42.238 30H361v-90h45c57.89 0 106-48.11 106-106 0-40.59-24.715-77.27-61.059-94.496zM268.86 307.78c-5.683-9.285-20.039-9.285-25.722 0l-25.575-15.672c16.583-27.101 60.293-27.101 76.875 0zm51.168-31.316c-13.785-22.531-37.718-35.992-64.027-35.992s-50.242 13.46-64.027 35.992l-25.606-15.645c19.278-31.523 52.793-50.347 89.633-50.347 36.844 0 70.355 18.824 89.637 50.347zm51.184-31.305c-24.758-40.504-67.824-64.687-115.211-64.687s-90.453 24.183-115.21 64.687l-25.606-15.644c30.265-49.496 82.898-79.043 140.816-79.043s110.55 29.547 140.816 79.043zm0 0" fill="#4066ef" opacity="1" data-original="#000000" class=""></path></g></svg>